<svg width="120" height="30" viewBox="0 0 120 30" fill="none" xmlns="http://www.w3.org/2000/svg">
<g clip-path="url(#clip0_113_8)">
<path d="M29.1886 17.7786L26.1799 14.9704L20.5741 20.2025L15 15L9.42589 20.2025L3.8201 14.9704L0.81134 17.7786" stroke="#272525" stroke-width="1.7" stroke-miterlimit="10"/>
<path d="M22.786 3.61005L19.8273 6.37151H16.1085" stroke="#272525" stroke-width="1.7" stroke-miterlimit="10"/>
<path d="M19.8419 6.38507V8.07234" stroke="#272525" stroke-width="1.7" stroke-miterlimit="10"/>
<path d="M15 28C22.732 28 29 22.1797 29 15C29 7.82031 22.732 2 15 2C7.26801 2 1 7.82031 1 15C1 22.1797 7.26801 28 15 28Z" stroke="black" stroke-width="1.7" stroke-miterlimit="10"/>
</g>
<path d="M35 10.2876C35 9.57081 35.224 9.01416 35.672 8.61765C36.1199 8.20588 36.7535 8 37.5727 8V22.1373C37.5727 22.8693 37.3487 23.4336 36.9007 23.8301C36.4527 24.2266 35.8192 24.4248 35 24.4248V10.2876ZM40.2032 14.7712C40.2032 14.0697 40.3888 13.5283 40.76 13.1471C41.1312 12.7658 41.6944 12.5752 42.4495 12.5752V13.9477C42.2192 14.2832 42.0656 14.5272 41.9888 14.6797L42.1232 14.7712C42.5199 14.0545 42.9423 13.5131 43.3903 13.1471C43.8383 12.7658 44.3694 12.5752 44.9838 12.5752C46.0974 12.5752 46.8653 13.2233 47.2877 14.5196C47.6077 13.9096 48.0173 13.4368 48.5165 13.1013C49.0156 12.7505 49.5788 12.5752 50.206 12.5752C51.0763 12.5752 51.7675 12.9564 52.2795 13.719C52.8043 14.4662 53.0666 15.427 53.0666 16.6013V22.6863C53.0666 23.2963 52.8683 23.7386 52.4715 24.0131C52.0875 24.2876 51.4987 24.4248 50.7052 24.4248V16.8301C50.7052 16.2658 50.5964 15.8159 50.3788 15.4804C50.174 15.1449 49.854 14.9771 49.4188 14.9771C48.958 14.9771 48.5677 15.1678 48.2477 15.549C47.9405 15.915 47.7869 16.4946 47.7869 17.2876V22.6863C47.7869 23.2963 47.5949 23.7386 47.2109 24.0131C46.8397 24.2876 46.2574 24.4248 45.4638 24.4248V16.8301C45.4638 16.2505 45.3614 15.8007 45.1566 15.4804C44.9518 15.1449 44.6318 14.9771 44.1967 14.9771C43.6591 14.9771 43.2495 15.1983 42.9679 15.6405C42.6991 16.0675 42.5647 16.6547 42.5647 17.402V22.6863C42.5647 23.2963 42.3663 23.7386 41.9696 24.0131C41.5856 24.2876 40.9968 24.4248 40.2032 24.4248V14.7712ZM58.3896 24.4248C57.7368 24.4248 57.1353 24.2723 56.5849 23.9673C56.0473 23.6623 55.6121 23.2277 55.2793 22.6634C54.9594 22.0839 54.7994 21.3976 54.7994 20.6046C54.7994 19.8115 54.9722 19.1253 55.3177 18.5458C55.6633 17.951 56.1305 17.5011 56.7193 17.1961C57.3208 16.8758 57.98 16.7157 58.6968 16.7157C59.2855 16.7157 59.8103 16.8301 60.2711 17.0588C60.7447 17.2723 61.1799 17.6002 61.5766 18.0425L61.6726 17.9281C61.5574 17.7909 61.359 17.585 61.0775 17.3105V16.8529C61.0775 16.2277 60.8919 15.732 60.5207 15.366C60.1495 15 59.6311 14.817 58.9656 14.817C57.7752 14.817 56.8985 15.3355 56.3353 16.3726C56.0537 16.2658 55.8169 16.098 55.6249 15.8693C55.4329 15.6253 55.3369 15.366 55.3369 15.0915C55.3369 14.634 55.5097 14.2146 55.8553 13.8333C56.2009 13.4521 56.6681 13.1471 57.2568 12.9183C57.8456 12.6895 58.4856 12.5752 59.1768 12.5752C60.5335 12.5752 61.583 12.9564 62.3254 13.719C63.0678 14.4662 63.4389 15.488 63.4389 16.7843V22.5033C63.4389 23.1743 63.2598 23.6623 62.9014 23.9673C62.543 24.2723 61.9798 24.4248 61.2119 24.4248V23.4869C61.4294 23.2277 61.5766 23.037 61.6534 22.915L61.5766 22.8007C61.1543 23.3344 60.6999 23.7386 60.2135 24.0131C59.7399 24.2876 59.132 24.4248 58.3896 24.4248ZM59.004 22.3431C59.6695 22.3431 60.1879 22.1906 60.5591 21.8856C60.9303 21.5806 61.1159 21.146 61.1159 20.5817C61.1159 20.0327 60.9239 19.598 60.5399 19.2778C60.1687 18.9575 59.6631 18.7974 59.0232 18.7974C58.4344 18.7974 57.9672 18.9575 57.6216 19.2778C57.2888 19.5828 57.1225 20.0174 57.1225 20.5817C57.1225 21.1612 57.2888 21.6035 57.6216 21.9085C57.9544 22.1983 58.4152 22.3431 59.004 22.3431ZM69.5446 29C68.7894 29 68.1174 28.8704 67.5287 28.6111C66.9399 28.3671 66.4791 28.0316 66.1463 27.6046C65.8136 27.1776 65.6472 26.7048 65.6472 26.1863C65.6472 25.6678 65.7944 25.3017 66.0887 25.0882C66.3959 24.8747 66.8247 24.768 67.3751 24.768C67.4263 25.3932 67.6311 25.8736 67.9894 26.2092C68.3478 26.5599 68.8662 26.7353 69.5446 26.7353C70.2997 26.7353 70.8309 26.5142 71.1381 26.0719C71.4581 25.6296 71.6181 25.0196 71.6181 24.2418V23.4641C71.8101 23.2963 71.9509 23.1362 72.0405 22.9837L71.9637 22.8693C71.6309 23.2658 71.1829 23.5861 70.6197 23.8301C70.0693 24.0741 69.551 24.1961 69.0646 24.1961C68.3478 24.1961 67.7079 24.0283 67.1447 23.6928C66.5815 23.342 66.1335 22.854 65.8008 22.2288C65.4808 21.6035 65.3208 20.8943 65.3208 20.1013V16.6928C65.3208 15.9303 65.4872 15.2364 65.82 14.6111C66.1655 13.9706 66.6135 13.4749 67.1639 13.1242C67.7271 12.7582 68.3286 12.5752 68.9686 12.5752C69.6726 12.5752 70.2677 12.7429 70.7541 13.0784C71.2533 13.4139 71.7077 13.8943 72.1172 14.5196L72.194 14.4281C72.13 14.2909 72.0085 14.0926 71.8293 13.8333C71.8293 12.9946 72.5652 12.5752 74.0372 12.5752V23.8301C74.0372 24.8366 73.8452 25.7288 73.4612 26.5065C73.0772 27.2843 72.5396 27.8943 71.8485 28.3366C71.1701 28.7789 70.4021 29 69.5446 29ZM69.679 21.7484C70.2421 21.7484 70.7157 21.5806 71.0997 21.2451C71.4837 20.8943 71.6757 20.4826 71.6757 20.0098V16.7614C71.6757 16.2734 71.4837 15.8617 71.0997 15.5261C70.7285 15.1906 70.2549 15.0229 69.679 15.0229C69.0518 15.0229 68.5654 15.183 68.2198 15.5033C67.8871 15.8235 67.7207 16.281 67.7207 16.8758V19.8954C67.7207 20.4749 67.8871 20.9325 68.2198 21.268C68.5526 21.5882 69.039 21.7484 69.679 21.7484ZM77.8138 11.5C77.3531 11.5 76.9691 11.3399 76.6619 11.0196C76.3675 10.6841 76.2203 10.2571 76.2203 9.73856C76.2203 9.2353 76.3675 8.82353 76.6619 8.50327C76.9691 8.16776 77.3531 8 77.8138 8C78.2746 8 78.6522 8.16776 78.9466 8.50327C79.2538 8.82353 79.4074 9.2353 79.4074 9.73856C79.4074 10.2571 79.2538 10.6841 78.9466 11.0196C78.6522 11.3399 78.2746 11.5 77.8138 11.5ZM76.6043 14.3137C76.6043 13.6885 76.8027 13.2462 77.1995 12.9869C77.5962 12.7124 78.1978 12.5752 79.0042 12.5752V22.6863C79.0042 23.2963 78.8058 23.7386 78.409 24.0131C78.0122 24.2876 77.4106 24.4248 76.6043 24.4248V14.3137ZM81.6763 14.7712C81.6763 14.0697 81.8618 13.5283 82.233 13.1471C82.617 12.7658 83.193 12.5752 83.9609 12.5752V13.9477C83.8074 14.1612 83.6538 14.4052 83.5002 14.6797L83.6154 14.7712C83.9993 14.085 84.4921 13.5512 85.0937 13.1699C85.6953 12.7734 86.3608 12.5752 87.0904 12.5752C87.7432 12.5752 88.3191 12.7505 88.8183 13.1013C89.3175 13.4521 89.7015 13.9325 89.9703 14.5425C90.2518 15.1525 90.3926 15.8388 90.3926 16.6013V22.6863C90.3926 23.2963 90.1942 23.7386 89.7975 24.0131C89.4007 24.2876 88.7991 24.4248 87.9927 24.4248V17.0131C87.9927 16.4336 87.8456 15.9608 87.5512 15.5948C87.2696 15.2288 86.8536 15.0458 86.3032 15.0458C85.6505 15.0458 85.1129 15.2898 84.6905 15.7778C84.2681 16.2505 84.0569 16.8453 84.0569 17.5621V22.6863C84.0569 23.2963 83.8649 23.7386 83.481 24.0131C83.097 24.2876 82.4954 24.4248 81.6763 24.4248V14.7712ZM96.7173 24.4248C95.9238 24.4248 95.2006 24.2418 94.5478 23.8758C93.8951 23.4946 93.3767 22.9837 92.9927 22.3431C92.6087 21.6874 92.4167 20.9553 92.4167 20.1471V17.1046C92.4167 16.2505 92.6151 15.4804 93.0119 14.7941C93.4087 14.1078 93.9335 13.5665 94.5862 13.1699C95.2518 12.7734 95.9686 12.5752 96.7365 12.5752C97.4917 12.5752 98.1829 12.7658 98.81 13.1471C99.45 13.5131 99.9556 14.0316 100.327 14.7026C100.698 15.3584 100.884 16.1133 100.884 16.9673V18.2484C100.884 18.5839 100.775 18.866 100.557 19.0948C100.352 19.3235 100.09 19.4379 99.77 19.4379H94.7398V19.9412C94.7398 20.597 94.9062 21.1307 95.239 21.5425C95.5718 21.9542 96.071 22.1601 96.7365 22.1601C97.3765 22.1601 97.8501 21.9924 98.1573 21.6569C98.4773 21.3214 98.6373 20.8867 98.6373 20.3529C98.8676 20.3224 99.0276 20.3072 99.1172 20.3072C99.5908 20.3072 99.962 20.4368 100.231 20.6961C100.5 20.9401 100.634 21.2909 100.634 21.7484C100.634 22.1906 100.461 22.6176 100.116 23.0294C99.77 23.4412 99.2964 23.7767 98.6948 24.0359C98.0933 24.2952 97.4341 24.4248 96.7173 24.4248ZM98.714 17.402V16.9673C98.714 16.3268 98.5285 15.8083 98.1573 15.4118C97.7861 15.0153 97.3061 14.817 96.7173 14.817C96.1286 14.817 95.6486 15.0153 95.2774 15.4118C94.919 15.793 94.7398 16.3115 94.7398 16.9673V17.402H98.714ZM104.095 24.4248C103.544 24.3486 103.109 24.1198 102.789 23.7386C102.482 23.3573 102.328 22.8769 102.328 22.2974C102.328 21.8551 102.418 21.3976 102.597 20.9248L106.994 9.00654C107.237 8.33551 107.659 8 108.261 8C108.85 8 109.266 8.33551 109.509 9.00654L113.905 20.9248C114.085 21.4281 114.174 21.8856 114.174 22.2974C114.174 22.8769 114.014 23.3573 113.694 23.7386C113.387 24.1198 112.952 24.3486 112.389 24.4248L110.776 20.0784H105.727L104.095 24.4248ZM109.989 17.4706L107.877 11.2026L107.646 11.317L108.107 12.7353L106.494 17.4706H109.989ZM116.427 10.2876C116.427 9.57081 116.651 9.01416 117.099 8.61765C117.547 8.20588 118.181 8 119 8V22.1373C119 22.8693 118.776 23.4336 118.328 23.8301C117.88 24.2266 117.246 24.4248 116.427 24.4248V10.2876Z" fill="black"/>
<defs>
<clipPath id="clip0_113_8">
<rect width="30" height="28" fill="white" transform="translate(0 1)"/>
</clipPath>
</defs>
</svg>
